PathFileType	4	(X/Y/Z)	Patient4_TMGait_0pt7_02_left_23.trc.trc
DataRate	CameraRate	NumFrames	NumMarkers	Units	OrigDataRate	OrigDataStartFrame	OrigNumFrames
86.956521739130	86.956521739130	4	33	mm	86.956521739130	71	       141
Frame#	Time	Sacral			L.Shoulder			Chest			R.Shoulder			Neck			R.ASIS			L.ASIS			R.Thigh.Superior			R.Thigh.Lateral			R.Thigh.Inferior			R.Patella			L.Thigh.Superior			L.Thigh.Lateral			L.Thigh.Inferior			L.Patella			L.Shank.Superior			L.Shank.Lateral			L.Shank.Inferior			R.Shank.Superior			R.Shank.Lateral			R.Shank.Inferior			R.Heel			R.Midfoot.Superior			R.Midfoot.Lateral			R.Toe			L.Heel			L.Midfoot.Lateral			L.Midfoot.Superior			L.Toe			L.Elbow			L.Wrist			R.Elbow			R.Wrist			
		X1	Y1	Z1	X2	Y2	Z2	X3	Y3	Z3	X4	Y4	Z4	X5	Y5	Z5	X6	Y6	Z6	X7	Y7	Z7	X8	Y8	Z8	X9	Y9	Z9	X10	Y10	Z10	X11	Y11	Z11	X12	Y12	Z12	X13	Y13	Z13	X14	Y14	Z14	X15	Y15	Z15	X16	Y16	Z16	X17	Y17	Z17	X18	Y18	Z18	X19	Y19	Z19	X20	Y20	Z20	X21	Y21	Z21	X22	Y22	Z22	X23	Y23	Z23	X24	Y24	Z24	X25	Y25	Z25	X26	Y26	Z26	X27	Y27	Z27	X28	Y28	Z28	X29	Y29	Z29	X30	Y30	Z30	X31	Y31	Z31	X32	Y32	Z32	X33	Y33	Z33	

71	26.925000000000	839.414122908519	1009.391472449283	432.804296371298	1046.556721800903	1435.551223984000	267.980789201515	1135.757200535569	1359.044356834730	434.826486621240	1041.643755196480	1434.275774491224	602.713480485237	1035.393215001656	1492.437726647953	422.694594730721	1055.697022647936	944.854277752438	568.201590053067	1062.548663205056	957.673035420977	292.193380640635	1135.329140288365	779.938629466555	542.679970603597	1098.394199941829	657.977962481198	620.437115525466	1188.609150374350	622.024446288501	541.269716901156	1226.191856898895	537.131179778426	562.297732399463	1066.933056123672	730.658173453045	328.238020031638	955.200471369965	634.628842972983	260.158567870902	1011.698870984379	542.283762375293	329.898492393072	996.307076911139	476.636099403257	340.120855974481	964.811729643755	409.606547189674	330.755755869991	865.745450533820	304.153131633011	279.390929951073	901.210280973190	189.733747610096	354.043008587405	1205.374378839379	448.243388878442	574.463802082494	1147.754180610013	339.229274606822	642.812183081972	1211.971341181729	248.245047287687	592.956251444769	1110.996452443072	63.897696365560	572.303254342480	1277.538786932592	133.083961453365	606.983330875246	1198.316636519424	57.299687140965	641.096716919370	1401.685754522312	91.175300520987	626.773828164076	760.823232552210	39.958759829122	395.114174799090	835.110762252962	36.156126633792	315.228000063722	918.858287548561	95.783613027632	342.887496043557	1047.151971642282	40.230900327542	314.684341527066	1156.295582573180	1144.971733801313	92.240818374206	1399.703595423307	1118.084954496000	169.078825438366	921.844401969153	1108.089677730187	718.445422458847	899.777742228361	847.359495212834	729.313766994376	
72	26.936500000000	840.801681702775	1007.340505427886	435.211529584533	1045.339642314826	1434.010257276545	269.326923848261	1135.555136514423	1357.890788942427	435.763331334274	1041.998378260055	1433.114060133685	603.940064593373	1034.727454373576	1490.907275662423	423.842770240659	1057.558562402156	942.779334964756	569.433862331475	1063.197820160453	956.419350932263	293.495966131966	1134.818402117601	775.345315715656	544.310400802600	1095.567805558983	653.803269279687	621.963593076446	1185.372505993757	616.950371920289	542.801711854917	1221.792178520641	533.209489425712	563.308157005521	1064.887406192421	728.659277501366	328.814174258381	951.483254944283	634.063218482186	260.810441978250	1006.850397842637	540.930194607185	330.151236254022	990.728456068723	475.508868559747	340.231759454441	958.747262120966	408.841719974023	330.934436421241	858.789182188016	304.182823132717	279.572606542655	893.654073123674	189.413630614605	354.030785265016	1202.846376578354	444.400489135318	575.373252022472	1146.958989764176	333.775853840922	642.520428735374	1213.712500424969	244.465855219769	592.647117835717	1116.935393734509	58.293113212950	570.073895919124	1281.901053656557	130.179471151868	606.094074919225	1203.838352273649	53.148924466663	639.491192903337	1406.785336640584	90.533614136321	626.816774349339	752.683267463116	39.910516718261	395.122739601657	826.976137236615	36.095895010410	315.247532829180	910.707060429885	95.723191238736	342.881255314702	1039.012937176291	40.176789263130	314.677027981974	1159.808972938781	1147.044395956788	92.505525798151	1402.450623270195	1127.640457720696	172.627302015172	914.356848914456	1111.155777696369	720.004644340466	886.284909535978	851.230661198670	729.613061309619	
73	26.948000000000	842.309583795670	1005.111197915987	437.877072142111	1044.000679978602	1432.279189074453	270.775997546770	1135.361920591137	1356.684585507911	436.810194933810	1042.316304781068	1431.889558158409	605.285984602141	1033.988552043426	1489.239503445636	425.089512957264	1059.632427430533	940.527940741041	570.838160201921	1063.941310983036	955.025158257209	295.069593303720	1134.794486811042	770.819937477101	546.101114179692	1093.065956491128	649.568225952577	623.235963320064	1182.697453332933	612.037662309931	544.330751395986	1217.695511187018	529.039663715213	564.203119124619	1063.206963960547	726.606159068618	329.456893665307	948.169839531174	633.402750754041	261.647055553778	1002.539372802500	539.504663474587	330.533831376414	985.729862169234	474.201532821375	340.498493435370	953.145360217096	407.922287542296	331.245080989206	852.135823338157	304.224061705001	279.851432329912	886.234499108199	189.034401630924	354.058476002222	1200.052415627488	440.178532471561	576.025924479785	1144.896220710367	328.401436738592	641.653593367879	1213.480530244310	240.360608108072	591.852957372389	1119.334120852419	53.698539128729	567.131238890850	1283.235362911283	126.598753887271	604.685188555768	1205.570118166868	49.295122862913	637.347651107080	1408.332152688044	87.979104106260	626.527364484009	744.536670881338	39.880983681818	395.107131119200	818.850772864339	36.036016110909	315.259250726536	902.569961054772	95.664731462924	342.872462737132	1030.891201856534	40.111459788916	314.652648556174	1162.713379852263	1148.705124749370	92.925581210030	1404.390980515116	1136.193383208240	176.060793376725	907.377600644356	1114.171573093199	721.586093564520	873.908288353661	855.016810876060	729.954800309424	
74	26.959500000000	843.881535521536	1002.785045641339	440.765353350134	1042.594433063751	1430.396375945861	272.326059314591	1135.197123133779	1355.450150620104	437.979419874847	1042.606115263779	1430.624585269136	606.751860172728	1033.225017064300	1487.484985144248	426.447981774526	1061.858138254897	938.175068176919	572.421998489771	1064.762936461914	953.519989671895	296.893170945055	1135.266720080629	766.471711202327	548.053213775751	1090.888413636111	645.368972162853	624.205163320389	1180.631519161969	607.416792751240	545.832782116059	1213.999441907867	524.758683397725	564.890441922041	1061.936213051176	724.547156254769	330.181223875834	945.330369302361	632.659660455280	262.692689520483	998.866117360071	538.019958534236	331.065205314921	981.426903657336	472.705560774946	340.942698498174	948.099275195048	406.845500618851	331.707079161702	845.864326201571	304.296977027403	280.245597423240	878.992522285463	188.609517225204	354.133232562320	1197.132902458333	435.720861471202	576.356825402410	1141.861951313135	323.203930348210	640.320675775757	1211.545449184075	236.003815773014	590.609692835393	1118.482114244997	50.020807711233	563.767095919260	1281.884335915705	122.472547888879	602.821563778422	1203.913083381609	45.808640685240	634.894312044891	1406.770693790224	83.761233334316	625.892272242540	736.388306365146	39.921091355130	395.056390474114	810.742735338089	35.995892130552	315.259023776459	894.470980950839	95.615885446127	342.852521679484	1022.794931730421	40.031726798446	314.607906397560	1164.989817644379	1149.880917772757	93.515718954070	1405.584848571910	1143.680595948331	179.346976441019	901.048241536119	1117.019145837281	723.161991369934	862.661898104555	858.579698949192	730.425838673400	
